# xmcd
#
# Track frame offsets: 
#        150
#        9601
#        18210
#        24812
#        34456
#        43413
#        51371
#        58052
#        70690
#        81769
#        91844
#        101083
#        108550
#        115938
#        125162
#        135249
#        143172
#
# Disc length: 2056 seconds
#
# Revision: 0
# Processed by: cddbd v1.5.2PL0 Copyright (c) Steve Scherf et al.
# Submitted via: ExactAudioCopy v0.99pb4
#
DISCID=e8080611
DTITLE=Keith Arneson - Another Time, Another Place
DYEAR=2002
DGENRE=Bluegrass
TTITLE0=Suzi's Back
TTITLE1=Turtle Hill Two Step
TTITLE2=A Cat Named Dawg
TTITLE3=A Minor Consideration
TTITLE4=Another Time, Another Place
TTITLE5=Blackberry Blossom
TTITLE6=Feather Bed
TTITLE7=Grandfather's Clock
TTITLE8=Hard Times
TTITLE9=Home Sweet Home
TTITLE10=Missing You
TTITLE11=Nellie Grey
TTITLE12=Sail Away Ladies
TTITLE13=Soldier's Joy
TTITLE14=Terry's Tune
TTITLE15=Maly's Tale
TTITLE16=When Douglas Met Chelsea
EXTD=
EXTT0=
EXTT1=
EXTT2=
EXTT3=
EXTT4=
EXTT5=
EXTT6=
EXTT7=
EXTT8=
EXTT9=
EXTT10=
EXTT11=
EXTT12=
EXTT13=
EXTT14=
EXTT15=
EXTT16=
PLAYORDER=
